<svg viewBox="0 0 283 226" fill="none" xmlns="http://www.w3.org/2000/svg">
  <path fill-rule="evenodd" clip-rule="evenodd" d="M265.956 118.2V115.386H267.777C268.77 115.386 269.763 115.717 269.763 116.876C269.763 118.2 268.604 118.365 267.28 118.365H265.956V118.2ZM265.956 119.027H267.611L269.928 122.668H271.087L268.604 119.027C269.763 118.862 270.756 118.2 270.756 116.71C270.756 115.221 269.928 114.393 268.108 114.393H264.963V122.668H265.956V119.027ZM267.446 112.407C270.921 112.407 273.404 115.055 273.404 118.531C273.404 122.006 270.756 124.654 267.446 124.654C263.97 124.654 261.488 122.006 261.488 118.531C261.488 115.221 264.136 112.407 267.446 112.407ZM267.446 111.414C263.474 111.414 260.329 114.559 260.329 118.531C260.329 122.503 263.474 125.647 267.446 125.647C271.418 125.647 274.562 122.503 274.562 118.531C274.562 114.559 271.583 111.414 267.446 111.414ZM210.845 110.256C214.982 108.932 219.285 108.104 223.919 108.104C228.057 108.104 231.698 108.435 235.173 109.263C250.73 101.65 261.157 82.9481 258.509 56.9646C255.861 26.6781 232.525 6.48705 216.803 8.80405C192.143 12.1141 182.71 36.4426 185.192 63.9156C187.013 85.596 195.619 102.974 210.845 110.256ZM263.805 179.104C252.385 191.351 239.807 193.006 226.898 193.006C202.404 193.006 182.379 173.477 182.379 151.962C182.379 135.412 191.15 120.186 205.218 112.738C183.206 108.104 162.353 92.0505 160.367 66.398C157.388 29.9881 182.048 4.33555 216.472 1.19105C251.061 -1.78795 280.024 18.2376 282.341 54.6476C284.161 81.955 259.502 105.291 237.656 109.925C252.22 114.228 261.322 125.978 263.97 145.011H225.243V142.363L235.835 141.535C243.945 140.873 245.269 136.239 243.945 132.598C243.945 132.598 238.152 114.559 222.099 114.559C210.017 114.559 199.425 133.591 199.425 144.68C199.425 173.808 219.12 185.227 230.374 185.227C242.124 185.227 255.199 184.234 263.639 175.959V179.104H263.805ZM68.5147 109.428V108.435C74.1417 108.435 84.0717 103.139 84.0717 97.0155V48.6896C84.0717 38.0975 75.3002 24.6921 60.9017 24.6921C46.5032 24.6921 39.0557 36.9391 39.0557 48.1931V108.766C43.5242 107.939 47.8272 107.442 51.6337 107.442C58.5847 107.442 63.8807 107.939 68.5147 109.428ZM190.488 126.971H186.682C183.041 117.869 174.6 111.58 163.512 112.904C155.071 112.904 139.183 125.316 139.183 140.542V192.344C139.183 192.344 113.2 192.013 106.58 192.344V189.861C116.675 188.041 122.964 184.565 122.964 174.966V120.682C122.964 112.738 117.172 111.249 110.221 111.083H72.6522C75.1347 112.242 77.6172 113.731 80.2652 115.386C87.0507 120.02 93.0087 129.619 93.0087 144.018V202.108C93.0087 224.782 75.3002 225.94 75.3002 225.94C67.0252 225.94 58.9157 225.775 53.7852 225.94V223.292C70.0042 221.968 75.1347 217.996 75.1347 204.756V139.384C75.1347 123.661 70.8317 113.069 50.3097 113.069C32.2702 113.069 23.4987 128.13 23.4987 146.666C23.4987 166.857 33.0977 186.551 48.4892 188.041C55.4402 188.703 63.2187 187.379 70.0042 183.572C65.2047 188.868 58.7502 192.84 50.6407 192.84C25.3192 192.84 3.96969 173.642 4.79719 146.335C5.45919 125.813 18.0372 115.386 31.6082 110.752C22.6712 110.752 8.10719 110.752 0.825195 110.918V108.27C12.2447 108.27 23.1677 103.47 23.1677 88.5751V15.0931H57.2607C73.9762 15.0931 85.8922 24.1956 88.8712 30.1536H115.02C130.246 30.1536 153.913 40.5801 153.913 61.764V89.4025C154.078 101.65 163.181 106.118 171.456 107.608C178.241 107.939 180.393 108.435 183.041 108.104C185.192 114.228 190.488 127.137 190.488 126.971ZM139.349 110.752V116.71C141.5 114.393 143.983 112.242 147.127 110.752C143.652 110.752 140.838 110.752 139.349 110.752ZM107.738 107.939V107.773H138.19V60.7711C138.19 49.6826 130.412 37.2701 115.186 37.2701C100.456 37.2701 93.8362 50.0136 93.8362 60.7711V96.8501C93.6707 102.477 101.449 106.78 107.738 107.939Z" fill="#404543"/>
  <path fill-rule="evenodd" clip-rule="evenodd" d="M215.976 98.3396C218.458 93.7056 226.402 76.9901 229.05 73.5146C231.202 70.7011 235.67 69.2116 238.649 71.5286C241.463 73.5146 241.463 78.1486 239.311 80.9621C236.663 84.4376 222.265 96.6846 218.458 100.16L215.976 98.3396Z" fill="#BE7749"/>
</svg>
    